<svg width="189" height="32" viewBox="0 0 189 32" fill="none" xmlns="http://www.w3.org/2000/svg">
    <path d="M0.752 31.3994L1.568 27.4634L20.48 6.63141H6.704L8 0.487411H31.904L30.992 4.80741L12.272 25.4474H26.912L25.664 31.3994H0.752ZM30.31 31.3994L36.838 0.487411H51.622C54.022 0.487411 55.942 0.983412 57.382 1.97541C58.854 2.96741 59.846 4.29541 60.358 5.95941C60.902 7.62341 60.966 9.47941 60.55 11.5274C59.91 14.8554 58.502 17.4954 56.326 19.4474C54.15 21.3674 51.206 22.3274 47.494 22.3274H39.958L38.038 31.3994H30.31ZM41.206 16.3754H46.774C48.662 16.3754 50.054 15.9274 50.95 15.0314C51.846 14.1354 52.438 12.9514 52.726 11.4794C53.078 9.68741 52.998 8.40741 52.486 7.63941C52.006 6.83941 50.886 6.43941 49.126 6.43941H43.318L41.206 16.3754ZM60.2194 31.3994L66.7474 0.487411H82.2034C84.2514 0.487411 85.9794 0.935411 87.3874 1.83141C88.8274 2.69541 89.8354 3.92741 90.4114 5.52741C91.0194 7.09541 91.0834 8.95141 90.6034 11.0954C90.1874 13.1754 89.2754 14.9994 87.8674 16.5674C86.4914 18.1354 84.8114 19.3034 82.8274 20.0714C83.1794 20.4234 83.4354 20.8234 83.5954 21.2714C83.7874 21.6874 83.9634 22.2794 84.1234 23.0474L86.0434 31.3994H77.9794L76.1554 23.5274C75.9954 22.7914 75.7234 22.2954 75.3394 22.0394C74.9874 21.7514 74.3954 21.6074 73.5634 21.6074H70.0114L67.9474 31.3994H60.2194ZM71.2594 15.6554H76.9714C78.4754 15.6554 79.7234 15.2874 80.7154 14.5514C81.7394 13.7834 82.4114 12.6314 82.7314 11.0954C83.0834 9.55941 83.0514 8.40741 82.6354 7.63941C82.2514 6.83941 81.1314 6.43941 79.2754 6.43941H73.2274L71.2594 15.6554ZM87.902 31.3994L106.238 0.487411H114.59L119.87 31.3994H112.382L111.086 24.3914H100.478L96.254 31.3994H87.902ZM102.734 18.6794H110.846L109.07 7.92741L102.734 18.6794ZM129.949 31.3994L124.669 0.487411H132.445L135.661 22.5674L148.237 0.487411H156.637L138.301 31.3994H129.949ZM163.263 31.3994L165.663 20.0234L158.703 0.487411H166.479L170.703 13.3034L180.303 0.487411H188.655L173.439 20.0234L171.039 31.3994H163.263Z" fill="#F5F5F6"/>
</svg>