<svg width="142" height="42" viewBox="0 0 142 42" fill="none" xmlns="http://www.w3.org/2000/svg">
    <rect width="141" height="42" fill="white"/>
    <path d="M0.064 34L0.676 31.048L14.86 15.424H4.528L5.5 10.816H23.428L22.744 14.056L8.704 29.536H19.684L18.748 34H0.064ZM22.4325 34L27.3285 10.816H38.4165C40.2165 10.816 41.6565 11.188 42.7365 11.932C43.8405 12.676 44.5845 13.672 44.9685 14.92C45.3765 16.168 45.4245 17.56 45.1125 19.096C44.6325 21.592 43.5765 23.572 41.9445 25.036C40.3125 26.476 38.1045 27.196 35.3205 27.196H29.6685L28.2285 34H22.4325ZM30.6045 22.732H34.7805C36.1965 22.732 37.2405 22.396 37.9125 21.724C38.5845 21.052 39.0285 20.164 39.2445 19.06C39.5085 17.716 39.4485 16.756 39.0645 16.18C38.7045 15.58 37.8645 15.28 36.5445 15.28H32.1885L30.6045 22.732ZM45.0645 34L49.9605 10.816H61.5525C63.0885 10.816 64.3845 11.152 65.4405 11.824C66.5205 12.472 67.2765 13.396 67.7085 14.596C68.1645 15.772 68.2125 17.164 67.8525 18.772C67.5405 20.332 66.8565 21.7 65.8005 22.876C64.7685 24.052 63.5085 24.928 62.0205 25.504C62.2845 25.768 62.4765 26.068 62.5965 26.404C62.7405 26.716 62.8725 27.16 62.9925 27.736L64.4325 34H58.3845L57.0165 28.096C56.8965 27.544 56.6925 27.172 56.4045 26.98C56.1405 26.764 55.6965 26.656 55.0725 26.656H52.4085L50.8605 34H45.0645ZM53.3445 22.192H57.6285C58.7565 22.192 59.6925 21.916 60.4365 21.364C61.2045 20.788 61.7085 19.924 61.9485 18.772C62.2125 17.62 62.1885 16.756 61.8765 16.18C61.5885 15.58 60.7485 15.28 59.3565 15.28H54.8205L53.3445 22.192ZM66.0265 34L79.7785 10.816H86.0425L90.0025 34H84.3865L83.4145 28.744H75.4585L72.2905 34H66.0265ZM77.1505 24.46H83.2345L81.9025 16.396L77.1505 24.46ZM97.7615 34L93.8015 10.816H99.6335L102.045 27.376L111.477 10.816H117.777L104.025 34H97.7615ZM122.947 34L124.747 25.468L119.527 10.816H125.359L128.527 20.428L135.727 10.816H141.991L130.579 25.468L128.779 34H122.947Z" fill="#2C543C"/>
</svg>